<?xml version="1.0" encoding="utf-8"?>
<!-- Generator: Adobe Illustrator 23.0.6, SVG Export Plug-In . SVG Version: 6.00 Build 0)  -->
<svg version="1.1" id="Layer_1" xmlns="http://www.w3.org/2000/svg" xmlns:xlink="http://www.w3.org/1999/xlink" x="0px" y="0px"
	 viewBox="0 0 135 162" style="enable-background:new 0 0 135 162;" xml:space="preserve">
<style type="text/css">
	.st0{fill:#ffbb91;}
</style>
<g>
	<g>
		<path class="st0" d="M122.3,64.9c-0.5,0-0.8,0.4-0.8,0.8c0,0.5,0.4,0.8,0.8,0.8c0.5,0,0.8-0.4,0.8-0.8
			C123.1,65.3,122.8,64.9,122.3,64.9z M122.3,64.9c-0.5,0-0.8,0.4-0.8,0.8c0,0.5,0.4,0.8,0.8,0.8c0.5,0,0.8-0.4,0.8-0.8
			C123.1,65.3,122.8,64.9,122.3,64.9z M122.3,64.9c-0.5,0-0.8,0.4-0.8,0.8c0,0.5,0.4,0.8,0.8,0.8c0.5,0,0.8-0.4,0.8-0.8
			C123.1,65.3,122.8,64.9,122.3,64.9z M122.3,64.9c-0.5,0-0.8,0.4-0.8,0.8c0,0.5,0.4,0.8,0.8,0.8c0.5,0,0.8-0.4,0.8-0.8
			C123.1,65.3,122.8,64.9,122.3,64.9z M15.6,89.1c-1.5-0.1-2.7,1.1-2.8,2.6c0,1.5,1.1,2.7,2.6,2.8c1.5,0.1,2.7-1.1,2.8-2.6
			C18.2,90.4,17.1,89.2,15.6,89.1z M30.6,88.5c-1.5,0-2.7,1.2-2.7,2.7c0,1.5,1.2,2.7,2.7,2.7c1.5,0,2.7-1.2,2.7-2.7
			C33.2,89.7,32.1,88.5,30.6,88.5z M122.3,64.9c-0.5,0-0.8,0.4-0.8,0.8c0,0.5,0.4,0.8,0.8,0.8c0.5,0,0.8-0.4,0.8-0.8
			C123.1,65.3,122.8,64.9,122.3,64.9z M122.3,64.9c-0.5,0-0.8,0.4-0.8,0.8c0,0.5,0.4,0.8,0.8,0.8c0.5,0,0.8-0.4,0.8-0.8
			C123.1,65.3,122.8,64.9,122.3,64.9z M30.6,88.5c-1.5,0-2.7,1.2-2.7,2.7c0,1.5,1.2,2.7,2.7,2.7c1.5,0,2.7-1.2,2.7-2.7
			C33.2,89.7,32.1,88.5,30.6,88.5z M15.6,89.1c-1.5-0.1-2.7,1.1-2.8,2.6c0,1.5,1.1,2.7,2.6,2.8c1.5,0.1,2.7-1.1,2.8-2.6
			C18.2,90.4,17.1,89.2,15.6,89.1z M67.4,8.1L6.8,44.4V118l60.6,36.3L128,118V44.4L67.4,8.1z M23.5,77.9l7.8-16.7
			c-1.5,6.5-3.5,13.7-4.8,16.7c-0.6,1.5-0.8,2-1.3,2.8h-3.4c-1-1.6-1.4-2.3-1.9-4.3c-0.8-3.2-2.8-9.8-4-16.4L23.5,77.9z M30.6,95.5
			c-2.3,0-4.3-1.9-4.4-4.2c0-0.6,0.1-1.2,0.3-1.7c0.3-0.7,0.2-1.5-0.2-2.1l-1.3-2c-0.5-0.8-1.1-1.6-1.6-2.4
			c-0.8,1.1-1.7,2.2-2.4,3.3l-1.3,1.9c-0.4,0.6-0.5,1.4-0.3,2.1c0.2,0.5,0.3,1.1,0.3,1.7c0,0.9-0.4,1.8-0.9,2.4
			c-0.1,0.1-0.1,0.1-0.2,0.2c0,0,0,0.1-0.1,0.1c-2.9,3.1-6.3,2.3-7.6,1.9c-0.4-0.1-0.8-0.3-0.7-0.7c0-0.2,0.1-0.4,0.4-0.3
			c1.2,0.3,2.2,0.4,3,0.3c0.2,0,0.2-0.2,0-0.3c-1.7-0.7-2.8-2.5-2.5-4.5c0.3-2.1,2-3.7,4.1-3.8c0.5,0,1,0.1,1.5,0.2
			c0.6,0.2,1.3-0.1,1.6-0.6l2.5-4.4h4.9l2,3.7c0.3,0.5,0.9,0.8,1.5,0.7c0.5-0.1,1-0.2,1.5-0.2c2.1,0.2,3.8,1.8,4,3.9
			C35.1,93.3,33.1,95.4,30.6,95.5z M82.5,120.2c-0.6,0.7-1,1.5-1,2.4l-0.8,3l-1.3-1.5c-0.2-0.1-0.4-0.1-0.5,0.1l-2.3,2.8
			c0,0-0.1,0.1-0.1,0.2c-0.1,0.5-0.7,2.9-1.8,3.8c0,0-0.3-3.2-1.1-3.5c0,0-3.8,4.7-6,6.3c0,0-3,2.4-3,3.3c0-0.9-3-3.3-3-3.3
			c-2.3-1.7-6-6.3-6-6.3c-0.8,0.3-1,3.5-1,3.5c-1.1-1-1.7-3.3-1.8-3.8c0-0.1,0-0.1-0.1-0.2l-2.3-2.8c-0.1-0.2-0.3-0.2-0.5-0.1
			l-1.4,1.5l-0.8-3c0-0.9-0.3-1.8-1-2.4l-4-4.2c9.3,0.3,7.1-1.7,12.6-4.8c5.6-3.2,9.2,0,9.2,0s3.6-3.2,9.2,0
			c5.6,3.2,3.3,5.1,12.6,4.8L82.5,120.2z M75.5,52.8h-4.6v5.4c-0.2-0.1-0.4-0.1-0.5-0.2c-1.1-0.3-2.3-0.5-3.5-0.5
			c-1.3,0-2.6,0.2-3.8,0.6v-5.4h-4.6c-5.2-0.1-4.6,7.1-4.6,7.1h-1.2v-9.5h28.6V60h-1.2C80.1,60,80.7,52.7,75.5,52.8z M59,92.6
			c-0.8-0.6-2,0-2,1V95h-1.3V81.6h1.1C59.6,94,68.6,93.1,68.6,93.1c4.3,0.2,5.7-3,5.7-3c2-4.3-1.9-6.6-1.9-6.6l-1.4-0.8v8.8
			c-0.5,0.2-1.1,0.4-1.9,0.4c-0.1,0-0.2,0-0.3,0l-0.1,0l-0.1,0c0,0-0.1,0-0.3,0c-0.7,0-2.7-0.1-4.7-1.5c-0.1-0.1-0.3-0.2-0.4-0.3
			V78.6l-0.1,0c-1.7-0.9-3-1.8-4-2.8c-4-4-3.7-10.7,0.7-14.4c0.1-0.1,0.2-0.1,0.3-0.2c2.9-2.2,6.6-2.9,10.2-2c2.6,0.7,4.3,2,5.3,2.9
			c0.5,0.5,1.3,0.1,1.3-0.6v-2.3h1.1v11.4h-1.1c-1-9.6-8.3-10-12-9.3c-1.6,0.3-3,1.4-3.6,2.9c-1.3,3.2,1.8,4.8,1.8,4.8l0.2,0.1v-5.5
			c0.5-0.5,1.1-0.8,1.8-0.9c0.7-0.1,1.4-0.2,2.2-0.2c1.2,0,2.6,0.2,3.8,0.8v10.4l4.1,2.4c4.7,2.7,6.4,8.8,3.8,13.5
			c-0.2,0.3-0.3,0.5-0.3,0.5C71.4,99.3,62.8,95.2,59,92.6z M75.4,102.5v1.1H58.6v-1.1l0.9,0c2-0.1,3.5-1.6,3.5-3.6l0-2.5
			c1.6,0.6,3.3,0.9,5.2,0.9c0.9,0,1.8-0.1,2.7-0.3l0,1.8c0,2,1.6,3.5,3.5,3.6L75.4,102.5z M89.6,41.6c-0.4,2-1.1,4.3-2.3,6.6
			c0,0,1.1-6.2-1.4-9.7c-0.8-1.1-2.1-1.6-3.4-1.5c-3.8,0.5-14.7,1.4-24.1-1.8c0,0-5.7-2.2-8,2.7c-1.8,3.8-2.2,9-2.2,9
			s-1.9-9.4,0-14.9c1.1-3,4.3-4.6,7.3-3.5c0.1,0,0.1,0.1,0.2,0.1c0,0,4.6-6.4,24-1.9C88.7,28.8,90.7,35.7,89.6,41.6z M115.8,95.8
			c-1,1.5-1.4,1.5-1.6,1.2c-0.2-0.3-0.1-0.6,0.1-0.9c1.9-2,0.3-5.7,0.1-6.1c0,0,0-0.1,0-0.1l-0.2-0.7c-0.2,0.2-0.3,0.4-0.5,0.6
			c-0.5,0.6-1.4-0.1-1-0.8c0,0,0-0.1,0.1-0.1c0,0,0.2-0.4,0.6-1.2h1.9c-0.1,0.1-0.1,0.2-0.2,0.3l0.8,2.4
			C117.1,94.1,115.8,95.8,115.8,95.8z M116.6,85.8H113l-6.5-20c-0.2-0.6,0.2-1.2,0.8-1.4l1.6-0.4c1-0.2,2,0.4,2.3,1.4l3.7,13.3
			c0.2,0.6-0.1,1.2-0.7,1.4l-0.9,0.4c-0.3,0.2-0.5,0.5-0.4,0.9l1.3,4c1.6-3.8,4-10.7,5.3-19c0,0,0.4-4.1,2.6-4.2c0,0,2.2-0.5,2.3,3
			C124.5,65.4,123.8,75.3,116.6,85.8z M122.3,64.9c-0.5,0-0.8,0.4-0.8,0.8c0,0.5,0.4,0.8,0.8,0.8c0.5,0,0.8-0.4,0.8-0.8
			C123.1,65.3,122.8,64.9,122.3,64.9z M65.1,116.4C65.1,116.4,65.1,116.4,65.1,116.4c-0.1-0.1-0.4-0.5-0.5-0.5c0,0,0,0,0,0
			c0,0-0.1,0.1-0.1,0.2c0,0-0.1,0.1-0.1,0.1c0,0-0.1,0.1-0.1,0.1c0,0-0.1,0-0.1,0.1c0,0,0,0,0,0c0,0,0,0,0,0
			c-2.6,2.8-8.4,1.7-8.4,1.7c0,0,1.1,0.8,3.2,0.8c2.3,0,4.3-0.2,5.8-1.9c1.5,1.7,3.4,1.9,5.8,1.9c2.1,0,3.1-0.8,3.1-0.8
			C73.5,118.1,67.8,119.3,65.1,116.4z M30.6,88.5c-1.5,0-2.7,1.2-2.7,2.7c0,1.5,1.2,2.7,2.7,2.7c1.5,0,2.7-1.2,2.7-2.7
			C33.2,89.7,32.1,88.5,30.6,88.5z M15.6,89.1c-1.5-0.1-2.7,1.1-2.8,2.6c0,1.5,1.1,2.7,2.6,2.8c1.5,0.1,2.7-1.1,2.8-2.6
			C18.2,90.4,17.1,89.2,15.6,89.1z M15.6,89.1c-1.5-0.1-2.7,1.1-2.8,2.6c0,1.5,1.1,2.7,2.6,2.8c1.5,0.1,2.7-1.1,2.8-2.6
			C18.2,90.4,17.1,89.2,15.6,89.1z M30.6,88.5c-1.5,0-2.7,1.2-2.7,2.7c0,1.5,1.2,2.7,2.7,2.7c1.5,0,2.7-1.2,2.7-2.7
			C33.2,89.7,32.1,88.5,30.6,88.5z M122.3,64.9c-0.5,0-0.8,0.4-0.8,0.8c0,0.5,0.4,0.8,0.8,0.8c0.5,0,0.8-0.4,0.8-0.8
			C123.1,65.3,122.8,64.9,122.3,64.9z M122.3,64.9c-0.5,0-0.8,0.4-0.8,0.8c0,0.5,0.4,0.8,0.8,0.8c0.5,0,0.8-0.4,0.8-0.8
			C123.1,65.3,122.8,64.9,122.3,64.9z M30.6,88.5c-1.5,0-2.7,1.2-2.7,2.7c0,1.5,1.2,2.7,2.7,2.7c1.5,0,2.7-1.2,2.7-2.7
			C33.2,89.7,32.1,88.5,30.6,88.5z M15.6,89.1c-1.5-0.1-2.7,1.1-2.8,2.6c0,1.5,1.1,2.7,2.6,2.8c1.5,0.1,2.7-1.1,2.8-2.6
			C18.2,90.4,17.1,89.2,15.6,89.1z M122.3,64.9c-0.5,0-0.8,0.4-0.8,0.8c0,0.5,0.4,0.8,0.8,0.8c0.5,0,0.8-0.4,0.8-0.8
			C123.1,65.3,122.8,64.9,122.3,64.9z M122.3,64.9c-0.5,0-0.8,0.4-0.8,0.8c0,0.5,0.4,0.8,0.8,0.8c0.5,0,0.8-0.4,0.8-0.8
			C123.1,65.3,122.8,64.9,122.3,64.9z"/>
		<path class="st0" d="M67.4,0.2L0.3,40.4V122l67.1,40.2l67.1-40.2V40.4L67.4,0.2z M131.4,120l-64,38.3L3.4,120V42.3L67.4,4l64,38.3
			V120z"/>
		<path class="st0" d="M122.3,64.9c-0.5,0-0.8,0.4-0.8,0.8c0,0.5,0.4,0.8,0.8,0.8c0.5,0,0.8-0.4,0.8-0.8
			C123.1,65.3,122.8,64.9,122.3,64.9z M122.3,64.9c-0.5,0-0.8,0.4-0.8,0.8c0,0.5,0.4,0.8,0.8,0.8c0.5,0,0.8-0.4,0.8-0.8
			C123.1,65.3,122.8,64.9,122.3,64.9z M122.3,64.9c-0.5,0-0.8,0.4-0.8,0.8c0,0.5,0.4,0.8,0.8,0.8c0.5,0,0.8-0.4,0.8-0.8
			C123.1,65.3,122.8,64.9,122.3,64.9z M122.3,64.9c-0.5,0-0.8,0.4-0.8,0.8c0,0.5,0.4,0.8,0.8,0.8c0.5,0,0.8-0.4,0.8-0.8
			C123.1,65.3,122.8,64.9,122.3,64.9z M15.6,89.1c-1.5-0.1-2.7,1.1-2.8,2.6c0,1.5,1.1,2.7,2.6,2.8c1.5,0.1,2.7-1.1,2.8-2.6
			C18.2,90.4,17.1,89.2,15.6,89.1z M30.6,88.5c-1.5,0-2.7,1.2-2.7,2.7c0,1.5,1.2,2.7,2.7,2.7c1.5,0,2.7-1.2,2.7-2.7
			C33.2,89.7,32.1,88.5,30.6,88.5z M122.3,64.9c-0.5,0-0.8,0.4-0.8,0.8c0,0.5,0.4,0.8,0.8,0.8c0.5,0,0.8-0.4,0.8-0.8
			C123.1,65.3,122.8,64.9,122.3,64.9z M122.3,64.9c-0.5,0-0.8,0.4-0.8,0.8c0,0.5,0.4,0.8,0.8,0.8c0.5,0,0.8-0.4,0.8-0.8
			C123.1,65.3,122.8,64.9,122.3,64.9z M30.6,88.5c-1.5,0-2.7,1.2-2.7,2.7c0,1.5,1.2,2.7,2.7,2.7c1.5,0,2.7-1.2,2.7-2.7
			C33.2,89.7,32.1,88.5,30.6,88.5z M15.6,89.1c-1.5-0.1-2.7,1.1-2.8,2.6c0,1.5,1.1,2.7,2.6,2.8c1.5,0.1,2.7-1.1,2.8-2.6
			C18.2,90.4,17.1,89.2,15.6,89.1z M67.4,8.1L6.8,44.4V118l60.6,36.3L128,118V44.4L67.4,8.1z M23.5,77.9l7.8-16.7
			c-1.5,6.5-3.5,13.7-4.8,16.7c-0.6,1.5-0.8,2-1.3,2.8h-3.4c-1-1.6-1.4-2.3-1.9-4.3c-0.8-3.2-2.8-9.8-4-16.4L23.5,77.9z M30.6,95.5
			c-2.3,0-4.3-1.9-4.4-4.2c0-0.6,0.1-1.2,0.3-1.7c0.3-0.7,0.2-1.5-0.2-2.1l-1.3-2c-0.5-0.8-1.1-1.6-1.6-2.4
			c-0.8,1.1-1.7,2.2-2.4,3.3l-1.3,1.9c-0.4,0.6-0.5,1.4-0.3,2.1c0.2,0.5,0.3,1.1,0.3,1.7c0,0.9-0.4,1.8-0.9,2.4
			c-0.1,0.1-0.1,0.1-0.2,0.2c0,0,0,0.1-0.1,0.1c-2.9,3.1-6.3,2.3-7.6,1.9c-0.4-0.1-0.8-0.3-0.7-0.7c0-0.2,0.1-0.4,0.4-0.3
			c1.2,0.3,2.2,0.4,3,0.3c0.2,0,0.2-0.2,0-0.3c-1.7-0.7-2.8-2.5-2.5-4.5c0.3-2.1,2-3.7,4.1-3.8c0.5,0,1,0.1,1.5,0.2
			c0.6,0.2,1.3-0.1,1.6-0.6l2.5-4.4h4.9l2,3.7c0.3,0.5,0.9,0.8,1.5,0.7c0.5-0.1,1-0.2,1.5-0.2c2.1,0.2,3.8,1.8,4,3.9
			C35.1,93.3,33.1,95.4,30.6,95.5z M82.5,120.2c-0.6,0.7-1,1.5-1,2.4l-0.8,3l-1.3-1.5c-0.2-0.1-0.4-0.1-0.5,0.1l-2.3,2.8
			c0,0-0.1,0.1-0.1,0.2c-0.1,0.5-0.7,2.9-1.8,3.8c0,0-0.3-3.2-1.1-3.5c0,0-3.8,4.7-6,6.3c0,0-3,2.4-3,3.3c0-0.9-3-3.3-3-3.3
			c-2.3-1.7-6-6.3-6-6.3c-0.8,0.3-1,3.5-1,3.5c-1.1-1-1.7-3.3-1.8-3.8c0-0.1,0-0.1-0.1-0.2l-2.3-2.8c-0.1-0.2-0.3-0.2-0.5-0.1
			l-1.4,1.5l-0.8-3c0-0.9-0.3-1.8-1-2.4l-4-4.2c9.3,0.3,7.1-1.7,12.6-4.8c5.6-3.2,9.2,0,9.2,0s3.6-3.2,9.2,0
			c5.6,3.2,3.3,5.1,12.6,4.8L82.5,120.2z M75.5,52.8h-4.6v5.4c-0.2-0.1-0.4-0.1-0.5-0.2c-1.1-0.3-2.3-0.5-3.5-0.5
			c-1.3,0-2.6,0.2-3.8,0.6v-5.4h-4.6c-5.2-0.1-4.6,7.1-4.6,7.1h-1.2v-9.5h28.6V60h-1.2C80.1,60,80.7,52.7,75.5,52.8z M59,92.6
			c-0.8-0.6-2,0-2,1V95h-1.3V81.6h1.1C59.6,94,68.6,93.1,68.6,93.1c4.3,0.2,5.7-3,5.7-3c2-4.3-1.9-6.6-1.9-6.6l-1.4-0.8v8.8
			c-0.5,0.2-1.1,0.4-1.9,0.4c-0.1,0-0.2,0-0.3,0l-0.1,0l-0.1,0c0,0-0.1,0-0.3,0c-0.7,0-2.7-0.1-4.7-1.5c-0.1-0.1-0.3-0.2-0.4-0.3
			V78.6l-0.1,0c-1.7-0.9-3-1.8-4-2.8c-4-4-3.7-10.7,0.7-14.4c0.1-0.1,0.2-0.1,0.3-0.2c2.9-2.2,6.6-2.9,10.2-2c2.6,0.7,4.3,2,5.3,2.9
			c0.5,0.5,1.3,0.1,1.3-0.6v-2.3h1.1v11.4h-1.1c-1-9.6-8.3-10-12-9.3c-1.6,0.3-3,1.4-3.6,2.9c-1.3,3.2,1.8,4.8,1.8,4.8l0.2,0.1v-5.5
			c0.5-0.5,1.1-0.8,1.8-0.9c0.7-0.1,1.4-0.2,2.2-0.2c1.2,0,2.6,0.2,3.8,0.8v10.4l4.1,2.4c4.7,2.7,6.4,8.8,3.8,13.5
			c-0.2,0.3-0.3,0.5-0.3,0.5C71.4,99.3,62.8,95.2,59,92.6z M75.4,102.5v1.1H58.6v-1.1l0.9,0c2-0.1,3.5-1.6,3.5-3.6l0-2.5
			c1.6,0.6,3.3,0.9,5.2,0.9c0.9,0,1.8-0.1,2.7-0.3l0,1.8c0,2,1.6,3.5,3.5,3.6L75.4,102.5z M89.6,41.6c-0.4,2-1.1,4.3-2.3,6.6
			c0,0,1.1-6.2-1.4-9.7c-0.8-1.1-2.1-1.6-3.4-1.5c-3.8,0.5-14.7,1.4-24.1-1.8c0,0-5.7-2.2-8,2.7c-1.8,3.8-2.2,9-2.2,9
			s-1.9-9.4,0-14.9c1.1-3,4.3-4.6,7.3-3.5c0.1,0,0.1,0.1,0.2,0.1c0,0,4.6-6.4,24-1.9C88.7,28.8,90.7,35.7,89.6,41.6z M115.8,95.8
			c-1,1.5-1.4,1.5-1.6,1.2c-0.2-0.3-0.1-0.6,0.1-0.9c1.9-2,0.3-5.7,0.1-6.1c0,0,0-0.1,0-0.1l-0.2-0.7c-0.2,0.2-0.3,0.4-0.5,0.6
			c-0.5,0.6-1.4-0.1-1-0.8c0,0,0-0.1,0.1-0.1c0,0,0.2-0.4,0.6-1.2h1.9c-0.1,0.1-0.1,0.2-0.2,0.3l0.8,2.4
			C117.1,94.1,115.8,95.8,115.8,95.8z M116.6,85.8H113l-6.5-20c-0.2-0.6,0.2-1.2,0.8-1.4l1.6-0.4c1-0.2,2,0.4,2.3,1.4l3.7,13.3
			c0.2,0.6-0.1,1.2-0.7,1.4l-0.9,0.4c-0.3,0.2-0.5,0.5-0.4,0.9l1.3,4c1.6-3.8,4-10.7,5.3-19c0,0,0.4-4.1,2.6-4.2c0,0,2.2-0.5,2.3,3
			C124.5,65.4,123.8,75.3,116.6,85.8z M122.3,64.9c-0.5,0-0.8,0.4-0.8,0.8c0,0.5,0.4,0.8,0.8,0.8c0.5,0,0.8-0.4,0.8-0.8
			C123.1,65.3,122.8,64.9,122.3,64.9z M65.1,116.4C65.1,116.4,65.1,116.4,65.1,116.4c-0.1-0.1-0.4-0.5-0.5-0.5c0,0,0,0,0,0
			c0,0-0.1,0.1-0.1,0.2c0,0-0.1,0.1-0.1,0.1c0,0-0.1,0.1-0.1,0.1c0,0-0.1,0-0.1,0.1c0,0,0,0,0,0c0,0,0,0,0,0
			c-2.6,2.8-8.4,1.7-8.4,1.7c0,0,1.1,0.8,3.2,0.8c2.3,0,4.3-0.2,5.8-1.9c1.5,1.7,3.4,1.9,5.8,1.9c2.1,0,3.1-0.8,3.1-0.8
			C73.5,118.1,67.8,119.3,65.1,116.4z M30.6,88.5c-1.5,0-2.7,1.2-2.7,2.7c0,1.5,1.2,2.7,2.7,2.7c1.5,0,2.7-1.2,2.7-2.7
			C33.2,89.7,32.1,88.5,30.6,88.5z M15.6,89.1c-1.5-0.1-2.7,1.1-2.8,2.6c0,1.5,1.1,2.7,2.6,2.8c1.5,0.1,2.7-1.1,2.8-2.6
			C18.2,90.4,17.1,89.2,15.6,89.1z M15.6,89.1c-1.5-0.1-2.7,1.1-2.8,2.6c0,1.5,1.1,2.7,2.6,2.8c1.5,0.1,2.7-1.1,2.8-2.6
			C18.2,90.4,17.1,89.2,15.6,89.1z M30.6,88.5c-1.5,0-2.7,1.2-2.7,2.7c0,1.5,1.2,2.7,2.7,2.7c1.5,0,2.7-1.2,2.7-2.7
			C33.2,89.7,32.1,88.5,30.6,88.5z M122.3,64.9c-0.5,0-0.8,0.4-0.8,0.8c0,0.5,0.4,0.8,0.8,0.8c0.5,0,0.8-0.4,0.8-0.8
			C123.1,65.3,122.8,64.9,122.3,64.9z M122.3,64.9c-0.5,0-0.8,0.4-0.8,0.8c0,0.5,0.4,0.8,0.8,0.8c0.5,0,0.8-0.4,0.8-0.8
			C123.1,65.3,122.8,64.9,122.3,64.9z M30.6,88.5c-1.5,0-2.7,1.2-2.7,2.7c0,1.5,1.2,2.7,2.7,2.7c1.5,0,2.7-1.2,2.7-2.7
			C33.2,89.7,32.1,88.5,30.6,88.5z M15.6,89.1c-1.5-0.1-2.7,1.1-2.8,2.6c0,1.5,1.1,2.7,2.6,2.8c1.5,0.1,2.7-1.1,2.8-2.6
			C18.2,90.4,17.1,89.2,15.6,89.1z M122.3,64.9c-0.5,0-0.8,0.4-0.8,0.8c0,0.5,0.4,0.8,0.8,0.8c0.5,0,0.8-0.4,0.8-0.8
			C123.1,65.3,122.8,64.9,122.3,64.9z M122.3,64.9c-0.5,0-0.8,0.4-0.8,0.8c0,0.5,0.4,0.8,0.8,0.8c0.5,0,0.8-0.4,0.8-0.8
			C123.1,65.3,122.8,64.9,122.3,64.9z"/>
		<path class="st0" d="M122.3,64.9c-0.5,0-0.8,0.4-0.8,0.8c0,0.5,0.4,0.8,0.8,0.8c0.5,0,0.8-0.4,0.8-0.8
			C123.1,65.3,122.8,64.9,122.3,64.9z M122.3,64.9c-0.5,0-0.8,0.4-0.8,0.8c0,0.5,0.4,0.8,0.8,0.8c0.5,0,0.8-0.4,0.8-0.8
			C123.1,65.3,122.8,64.9,122.3,64.9z M122.3,64.9c-0.5,0-0.8,0.4-0.8,0.8c0,0.5,0.4,0.8,0.8,0.8c0.5,0,0.8-0.4,0.8-0.8
			C123.1,65.3,122.8,64.9,122.3,64.9z M122.3,64.9c-0.5,0-0.8,0.4-0.8,0.8c0,0.5,0.4,0.8,0.8,0.8c0.5,0,0.8-0.4,0.8-0.8
			C123.1,65.3,122.8,64.9,122.3,64.9z M15.6,89.1c-1.5-0.1-2.7,1.1-2.8,2.6c0,1.5,1.1,2.7,2.6,2.8c1.5,0.1,2.7-1.1,2.8-2.6
			C18.2,90.4,17.1,89.2,15.6,89.1z M30.6,88.5c-1.5,0-2.7,1.2-2.7,2.7c0,1.5,1.2,2.7,2.7,2.7c1.5,0,2.7-1.2,2.7-2.7
			C33.2,89.7,32.1,88.5,30.6,88.5z M122.3,64.9c-0.5,0-0.8,0.4-0.8,0.8c0,0.5,0.4,0.8,0.8,0.8c0.5,0,0.8-0.4,0.8-0.8
			C123.1,65.3,122.8,64.9,122.3,64.9z M122.3,64.9c-0.5,0-0.8,0.4-0.8,0.8c0,0.5,0.4,0.8,0.8,0.8c0.5,0,0.8-0.4,0.8-0.8
			C123.1,65.3,122.8,64.9,122.3,64.9z M30.6,88.5c-1.5,0-2.7,1.2-2.7,2.7c0,1.5,1.2,2.7,2.7,2.7c1.5,0,2.7-1.2,2.7-2.7
			C33.2,89.7,32.1,88.5,30.6,88.5z M15.6,89.1c-1.5-0.1-2.7,1.1-2.8,2.6c0,1.5,1.1,2.7,2.6,2.8c1.5,0.1,2.7-1.1,2.8-2.6
			C18.2,90.4,17.1,89.2,15.6,89.1z M67.4,8.1L6.8,44.4V118l60.6,36.3L128,118V44.4L67.4,8.1z M23.5,77.9l7.8-16.7
			c-1.5,6.5-3.5,13.7-4.8,16.7c-0.6,1.5-0.8,2-1.3,2.8h-3.4c-1-1.6-1.4-2.3-1.9-4.3c-0.8-3.2-2.8-9.8-4-16.4L23.5,77.9z M30.6,95.5
			c-2.3,0-4.3-1.9-4.4-4.2c0-0.6,0.1-1.2,0.3-1.7c0.3-0.7,0.2-1.5-0.2-2.1l-1.3-2c-0.5-0.8-1.1-1.6-1.6-2.4
			c-0.8,1.1-1.7,2.2-2.4,3.3l-1.3,1.9c-0.4,0.6-0.5,1.4-0.3,2.1c0.2,0.5,0.3,1.1,0.3,1.7c0,0.9-0.4,1.8-0.9,2.4
			c-0.1,0.1-0.1,0.1-0.2,0.2c0,0,0,0.1-0.1,0.1c-2.9,3.1-6.3,2.3-7.6,1.9c-0.4-0.1-0.8-0.3-0.7-0.7c0-0.2,0.1-0.4,0.4-0.3
			c1.2,0.3,2.2,0.4,3,0.3c0.2,0,0.2-0.2,0-0.3c-1.7-0.7-2.8-2.5-2.5-4.5c0.3-2.1,2-3.7,4.1-3.8c0.5,0,1,0.1,1.5,0.2
			c0.6,0.2,1.3-0.1,1.6-0.6l2.5-4.4h4.9l2,3.7c0.3,0.5,0.9,0.8,1.5,0.7c0.5-0.1,1-0.2,1.5-0.2c2.1,0.2,3.8,1.8,4,3.9
			C35.1,93.3,33.1,95.4,30.6,95.5z M82.5,120.2c-0.6,0.7-1,1.5-1,2.4l-0.8,3l-1.3-1.5c-0.2-0.1-0.4-0.1-0.5,0.1l-2.3,2.8
			c0,0-0.1,0.1-0.1,0.2c-0.1,0.5-0.7,2.9-1.8,3.8c0,0-0.3-3.2-1.1-3.5c0,0-3.8,4.7-6,6.3c0,0-3,2.4-3,3.3c0-0.9-3-3.3-3-3.3
			c-2.3-1.7-6-6.3-6-6.3c-0.8,0.3-1,3.5-1,3.5c-1.1-1-1.7-3.3-1.8-3.8c0-0.1,0-0.1-0.1-0.2l-2.3-2.8c-0.1-0.2-0.3-0.2-0.5-0.1
			l-1.4,1.5l-0.8-3c0-0.9-0.3-1.8-1-2.4l-4-4.2c9.3,0.3,7.1-1.7,12.6-4.8c5.6-3.2,9.2,0,9.2,0s3.6-3.2,9.2,0
			c5.6,3.2,3.3,5.1,12.6,4.8L82.5,120.2z M75.5,52.8h-4.6v5.4c-0.2-0.1-0.4-0.1-0.5-0.2c-1.1-0.3-2.3-0.5-3.5-0.5
			c-1.3,0-2.6,0.2-3.8,0.6v-5.4h-4.6c-5.2-0.1-4.6,7.1-4.6,7.1h-1.2v-9.5h28.6V60h-1.2C80.1,60,80.7,52.7,75.5,52.8z M59,92.6
			c-0.8-0.6-2,0-2,1V95h-1.3V81.6h1.1C59.6,94,68.6,93.1,68.6,93.1c4.3,0.2,5.7-3,5.7-3c2-4.3-1.9-6.6-1.9-6.6l-1.4-0.8v8.8
			c-0.5,0.2-1.1,0.4-1.9,0.4c-0.1,0-0.2,0-0.3,0l-0.1,0l-0.1,0c0,0-0.1,0-0.3,0c-0.7,0-2.7-0.1-4.7-1.5c-0.1-0.1-0.3-0.2-0.4-0.3
			V78.6l-0.1,0c-1.7-0.9-3-1.8-4-2.8c-4-4-3.7-10.7,0.7-14.4c0.1-0.1,0.2-0.1,0.3-0.2c2.9-2.2,6.6-2.9,10.2-2c2.6,0.7,4.3,2,5.3,2.9
			c0.5,0.5,1.3,0.1,1.3-0.6v-2.3h1.1v11.4h-1.1c-1-9.6-8.3-10-12-9.3c-1.6,0.3-3,1.4-3.6,2.9c-1.3,3.2,1.8,4.8,1.8,4.8l0.2,0.1v-5.5
			c0.5-0.5,1.1-0.8,1.8-0.9c0.7-0.1,1.4-0.2,2.2-0.2c1.2,0,2.6,0.2,3.8,0.8v10.4l4.1,2.4c4.7,2.7,6.4,8.8,3.8,13.5
			c-0.2,0.3-0.3,0.5-0.3,0.5C71.4,99.3,62.8,95.2,59,92.6z M75.4,102.5v1.1H58.6v-1.1l0.9,0c2-0.1,3.5-1.6,3.5-3.6l0-2.5
			c1.6,0.6,3.3,0.9,5.2,0.9c0.9,0,1.8-0.1,2.7-0.3l0,1.8c0,2,1.6,3.5,3.5,3.6L75.4,102.5z M89.6,41.6c-0.4,2-1.1,4.3-2.3,6.6
			c0,0,1.1-6.2-1.4-9.7c-0.8-1.1-2.1-1.6-3.4-1.5c-3.8,0.5-14.7,1.4-24.1-1.8c0,0-5.7-2.2-8,2.7c-1.8,3.8-2.2,9-2.2,9
			s-1.9-9.4,0-14.9c1.1-3,4.3-4.6,7.3-3.5c0.1,0,0.1,0.1,0.2,0.1c0,0,4.6-6.4,24-1.9C88.7,28.8,90.7,35.7,89.6,41.6z M115.8,95.8
			c-1,1.5-1.4,1.5-1.6,1.2c-0.2-0.3-0.1-0.6,0.1-0.9c1.9-2,0.3-5.7,0.1-6.1c0,0,0-0.1,0-0.1l-0.2-0.7c-0.2,0.2-0.3,0.4-0.5,0.6
			c-0.5,0.6-1.4-0.1-1-0.8c0,0,0-0.1,0.1-0.1c0,0,0.2-0.4,0.6-1.2h1.9c-0.1,0.1-0.1,0.2-0.2,0.3l0.8,2.4
			C117.1,94.1,115.8,95.8,115.8,95.8z M116.6,85.8H113l-6.5-20c-0.2-0.6,0.2-1.2,0.8-1.4l1.6-0.4c1-0.2,2,0.4,2.3,1.4l3.7,13.3
			c0.2,0.6-0.1,1.2-0.7,1.4l-0.9,0.4c-0.3,0.2-0.5,0.5-0.4,0.9l1.3,4c1.6-3.8,4-10.7,5.3-19c0,0,0.4-4.1,2.6-4.2c0,0,2.2-0.5,2.3,3
			C124.5,65.4,123.8,75.3,116.6,85.8z M122.3,64.9c-0.5,0-0.8,0.4-0.8,0.8c0,0.5,0.4,0.8,0.8,0.8c0.5,0,0.8-0.4,0.8-0.8
			C123.1,65.3,122.8,64.9,122.3,64.9z M65.1,116.4C65.1,116.4,65.1,116.4,65.1,116.4c-0.1-0.1-0.4-0.5-0.5-0.5c0,0,0,0,0,0
			c0,0-0.1,0.1-0.1,0.2c0,0-0.1,0.1-0.1,0.1c0,0-0.1,0.1-0.1,0.1c0,0-0.1,0-0.1,0.1c0,0,0,0,0,0c0,0,0,0,0,0
			c-2.6,2.8-8.4,1.7-8.4,1.7c0,0,1.1,0.8,3.2,0.8c2.3,0,4.3-0.2,5.8-1.9c1.5,1.7,3.4,1.9,5.8,1.9c2.1,0,3.1-0.8,3.1-0.8
			C73.5,118.1,67.8,119.3,65.1,116.4z M30.6,88.5c-1.5,0-2.7,1.2-2.7,2.7c0,1.5,1.2,2.7,2.7,2.7c1.5,0,2.7-1.2,2.7-2.7
			C33.2,89.7,32.1,88.5,30.6,88.5z M15.6,89.1c-1.5-0.1-2.7,1.1-2.8,2.6c0,1.5,1.1,2.7,2.6,2.8c1.5,0.1,2.7-1.1,2.8-2.6
			C18.2,90.4,17.1,89.2,15.6,89.1z M15.6,89.1c-1.5-0.1-2.7,1.1-2.8,2.6c0,1.5,1.1,2.7,2.6,2.8c1.5,0.1,2.7-1.1,2.8-2.6
			C18.2,90.4,17.1,89.2,15.6,89.1z M30.6,88.5c-1.5,0-2.7,1.2-2.7,2.7c0,1.5,1.2,2.7,2.7,2.7c1.5,0,2.7-1.2,2.7-2.7
			C33.2,89.7,32.1,88.5,30.6,88.5z M122.3,64.9c-0.5,0-0.8,0.4-0.8,0.8c0,0.5,0.4,0.8,0.8,0.8c0.5,0,0.8-0.4,0.8-0.8
			C123.1,65.3,122.8,64.9,122.3,64.9z M122.3,64.9c-0.5,0-0.8,0.4-0.8,0.8c0,0.5,0.4,0.8,0.8,0.8c0.5,0,0.8-0.4,0.8-0.8
			C123.1,65.3,122.8,64.9,122.3,64.9z M30.6,88.5c-1.5,0-2.7,1.2-2.7,2.7c0,1.5,1.2,2.7,2.7,2.7c1.5,0,2.7-1.2,2.7-2.7
			C33.2,89.7,32.1,88.5,30.6,88.5z M15.6,89.1c-1.5-0.1-2.7,1.1-2.8,2.6c0,1.5,1.1,2.7,2.6,2.8c1.5,0.1,2.7-1.1,2.8-2.6
			C18.2,90.4,17.1,89.2,15.6,89.1z M122.3,64.9c-0.5,0-0.8,0.4-0.8,0.8c0,0.5,0.4,0.8,0.8,0.8c0.5,0,0.8-0.4,0.8-0.8
			C123.1,65.3,122.8,64.9,122.3,64.9z M122.3,64.9c-0.5,0-0.8,0.4-0.8,0.8c0,0.5,0.4,0.8,0.8,0.8c0.5,0,0.8-0.4,0.8-0.8
			C123.1,65.3,122.8,64.9,122.3,64.9z"/>
	</g>
</g>
<g>
</g>
<g>
</g>
<g>
</g>
<g>
</g>
<g>
</g>
<g>
</g>
<g>
</g>
<g>
</g>
<g>
</g>
<g>
</g>
<g>
</g>
<g>
</g>
<g>
</g>
<g>
</g>
<g>
</g>
</svg>
